HIERARCHY
ROOT Hips
{
	OFFSET -14.64140 90.27770 -84.91600
	CHANNELS 6 Xposition Yposition Zposition Zrotation Xrotation Yrotation
	JOINT Spine
	{
		OFFSET 0.00000 13.20850 -1.60436
		CHANNELS 3 Zrotation Xrotation Yrotation
		JOINT Spine1
		{
			OFFSET 0.00000 8.61716 0.00000
			CHANNELS 3 Zrotation Xrotation Yrotation
			JOINT Spine2
			{
				OFFSET 0.00000 8.61717 0.00000
				CHANNELS 3 Zrotation Xrotation Yrotation
				JOINT Spine3
				{
					OFFSET 0.00000 8.61717 0.00000
					CHANNELS 3 Zrotation Xrotation Yrotation
					JOINT Neck
					{
						OFFSET 0.00000 11.07920 1.10792
						CHANNELS 3 Zrotation Xrotation Yrotation
						JOINT Neck1
						{
							OFFSET 0.00000 7.08032 0.00000
							CHANNELS 3 Zrotation Xrotation Yrotation
							JOINT Head
							{
								OFFSET 0.00000 7.08031 0.00000
								CHANNELS 3 Zrotation Xrotation Yrotation
								End site
								{
									OFFSET 0.00000 0.00000 0.00000
								}
							}
						}
					}
					JOINT RightShoulder
					{
						OFFSET -0.01000 7.91373 5.19711
						CHANNELS 3 Zrotation Xrotation Yrotation
						JOINT RightArm
						{
							OFFSET -18.41580 0.00000 0.00000
							CHANNELS 3 Zrotation Xrotation Yrotation
							JOINT RightForeArm
							{
								OFFSET -29.11090 0.00000 0.00000
								CHANNELS 3 Zrotation Xrotation Yrotation
								JOINT RightHand
								{
									OFFSET -24.65040 0.00000 0.00000
									CHANNELS 3 Zrotation Xrotation Yrotation
									JOINT RightHandThumb1
									{
										OFFSET -5.35114 -0.85590 3.97906
										CHANNELS 3 Zrotation Xrotation Yrotation
										JOINT RightHandThumb2
										{
											OFFSET -4.52789 0.00000 0.00000
											CHANNELS 3 Zrotation Xrotation Yrotation
											JOINT RightHandThumb3
											{
												OFFSET -2.46976 0.00000 0.00000
												CHANNELS 3 Zrotation Xrotation Yrotation
												End site
												{
													OFFSET 0.00000 0.00000 0.00000
												}
											}
										}
									}
									JOINT RightHandIndex1
									{
										OFFSET -14.26970 0.00000 2.88139
										CHANNELS 3 Zrotation Xrotation Yrotation
										JOINT RightHandIndex2
										{
											OFFSET -5.48836 0.00000 0.00000
											CHANNELS 3 Zrotation Xrotation Yrotation
											JOINT RightHandIndex3
											{
												OFFSET -3.01859 0.00000 0.00000
												CHANNELS 3 Zrotation Xrotation Yrotation
												End site
												{
													OFFSET 0.00000 0.00000 0.00000
												}
											}
										}
									}
									JOINT RightHandMiddle1
									{
										OFFSET -14.26970 0.00000 -0.09147
										CHANNELS 3 Zrotation Xrotation Yrotation
										JOINT RightHandMiddle2
										{
											OFFSET -6.17441 0.00000 0.00000
											CHANNELS 3 Zrotation Xrotation Yrotation
											JOINT RightHandMiddle3
											{
												OFFSET -3.56743 0.00000 0.00000
												CHANNELS 3 Zrotation Xrotation Yrotation
												End site
												{
													OFFSET 0.00000 0.00000 0.00000
												}
											}
										}
									}
									JOINT RightHandRing1
									{
										OFFSET -12.69180 0.00000 -3.06433
										CHANNELS 3 Zrotation Xrotation Yrotation
										JOINT RightHandRing2
										{
											OFFSET -5.62556 0.00000 0.00000
											CHANNELS 3 Zrotation Xrotation Yrotation
											JOINT RightHandRing3
											{
												OFFSET -3.56744 0.00000 0.00000
												CHANNELS 3 Zrotation Xrotation Yrotation
												End site
												{
													OFFSET 0.00000 0.00000 0.00000
												}
											}
										}
									}
									JOINT RightHandPinky1
									{
										OFFSET -11.11390 0.00000 -6.03719
										CHANNELS 3 Zrotation Xrotation Yrotation
										JOINT RightHandPinky2
										{
											OFFSET -4.52789 0.00000 0.00000
											CHANNELS 3 Zrotation Xrotation Yrotation
											JOINT RightHandPinky3
											{
												OFFSET -2.46976 0.00000 0.00000
												CHANNELS 3 Zrotation Xrotation Yrotation
												End site
												{
													OFFSET 0.00000 0.00000 0.00000
												}
											}
										}
									}
								}
							}
						}
					}
					JOINT LeftShoulder
					{
						OFFSET 0.01000 7.91373 5.19711
						CHANNELS 3 Zrotation Xrotation Yrotation
						JOINT LeftArm
						{
							OFFSET 18.41580 0.00000 0.00000
							CHANNELS 3 Zrotation Xrotation Yrotation
							JOINT LeftForeArm
							{
								OFFSET 29.11090 0.00000 0.00000
								CHANNELS 3 Zrotation Xrotation Yrotation
								JOINT LeftHand
								{
									OFFSET 24.65040 0.00000 0.00000
									CHANNELS 3 Zrotation Xrotation Yrotation
									JOINT LeftHandThumb1
									{
										OFFSET 5.35114 -0.85590 3.97906
										CHANNELS 3 Zrotation Xrotation Yrotation
										JOINT LeftHandThumb2
										{
											OFFSET 4.52789 0.00000 0.00000
											CHANNELS 3 Zrotation Xrotation Yrotation
											JOINT LeftHandThumb3
											{
												OFFSET 2.46977 0.00000 0.00000
												CHANNELS 3 Zrotation Xrotation Yrotation
												End site
												{
													OFFSET 0.00000 0.00000 0.00000
												}
											}
										}
									}
									JOINT LeftHandIndex1
									{
										OFFSET 14.26970 0.00000 2.88139
										CHANNELS 3 Zrotation Xrotation Yrotation
										JOINT LeftHandIndex2
										{
											OFFSET 5.48836 0.00000 0.00000
											CHANNELS 3 Zrotation Xrotation Yrotation
											JOINT LeftHandIndex3
											{
												OFFSET 3.01859 0.00000 0.00000
												CHANNELS 3 Zrotation Xrotation Yrotation
												End site
												{
													OFFSET 0.00000 0.00000 0.00000
												}
											}
										}
									}
									JOINT LeftHandMiddle1
									{
										OFFSET 14.26970 0.00000 -0.09147
										CHANNELS 3 Zrotation Xrotation Yrotation
										JOINT LeftHandMiddle2
										{
											OFFSET 6.17440 0.00000 0.00000
											CHANNELS 3 Zrotation Xrotation Yrotation
											JOINT LeftHandMiddle3
											{
												OFFSET 3.56744 0.00000 0.00000
												CHANNELS 3 Zrotation Xrotation Yrotation
												End site
												{
													OFFSET 0.00000 0.00000 0.00000
												}
											}
										}
									}
									JOINT LeftHandRing1
									{
										OFFSET 12.69180 0.00000 -3.06433
										CHANNELS 3 Zrotation Xrotation Yrotation
										JOINT LeftHandRing2
										{
											OFFSET 5.62556 0.00000 0.00000
											CHANNELS 3 Zrotation Xrotation Yrotation
											JOINT LeftHandRing3
											{
												OFFSET 3.56744 0.00000 0.00000
												CHANNELS 3 Zrotation Xrotation Yrotation
												End site
												{
													OFFSET 0.00000 0.00000 0.00000
												}
											}
										}
									}
									JOINT LeftHandPinky1
									{
										OFFSET 11.11390 0.00000 -6.03719
										CHANNELS 3 Zrotation Xrotation Yrotation
										JOINT LeftHandPinky2
										{
											OFFSET 4.52789 0.00000 0.00000
											CHANNELS 3 Zrotation Xrotation Yrotation
											JOINT LeftHandPinky3
											{
												OFFSET 2.46976 0.00000 0.00000
												CHANNELS 3 Zrotation Xrotation Yrotation
												End site
												{
													OFFSET 0.00000 0.00000 0.00000
												}
											}
										}
									}
								}
							}
						}
					}
					JOINT pCube4
					{
						OFFSET 0.00000 10.91090 1.10792
						CHANNELS 3 Zrotation Xrotation Yrotation
						End site
						{
							OFFSET 0.00000 0.00000 0.00000
						}
					}
				}
			}
		}
	}
	JOINT RightUpLeg
	{
		OFFSET -9.98441 0.00000 0.00000
		CHANNELS 3 Zrotation Xrotation Yrotation
		JOINT RightLeg
		{
			OFFSET 0.00000 -42.11790 0.00000
			CHANNELS 3 Zrotation Xrotation Yrotation
			JOINT RightFoot
			{
				OFFSET 0.00000 -45.00020 -0.00001
				CHANNELS 3 Zrotation Xrotation Yrotation
				JOINT RightForeFoot
				{
					OFFSET 0.00000 -3.74820 0.00000
					CHANNELS 3 Zrotation Xrotation Yrotation
					JOINT RightToeBase
					{
						OFFSET 0.00000 0.06325 14.43120
						CHANNELS 3 Zrotation Xrotation Yrotation
						End site
						{
							OFFSET 0.00000 0.00000 0.00000
						}
					}
				}
			}
		}
	}
	JOINT LeftUpLeg
	{
		OFFSET 9.98441 0.00000 0.00000
		CHANNELS 3 Zrotation Xrotation Yrotation
		JOINT LeftLeg
		{
			OFFSET 0.00000 -42.11800 0.00000
			CHANNELS 3 Zrotation Xrotation Yrotation
			JOINT LeftFoot
			{
				OFFSET 0.00000 -45.00070 0.00000
				CHANNELS 3 Zrotation Xrotation Yrotation
				JOINT LeftForeFoot
				{
					OFFSET 0.00000 -3.74824 0.00000
					CHANNELS 3 Zrotation Xrotation Yrotation
					JOINT LeftToeBase
					{
						OFFSET 0.00000 0.06325 14.43110
						CHANNELS 3 Zrotation Xrotation Yrotation
						End site
						{
							OFFSET 0.00000 0.00000 0.00000
						}
					}
				}
			}
		}
	}
}
MOTION
Frames: 4
Frame Time: 0.050000
0.03793227364032829 -0.02469793170920455 0.021677196444941482 0.009778035143991642 -0.0311489974687582 -0.030585957470614877 -3.320217948901093 1.5251469137737024 -0.7535657710428286 -1.0521236979239341 3.6118540751253927 0.3774414134583799 -1.3008925103028703 -2.4526905674308552 -2.045484282832734 -1.235036074418652 -0.044786395974247134 -0.9197932457429605 -0.8727304404315395 15.713967165426777 2.008823193541094 0.21390082623121692 1.1632428153231 4.320908938950855 -0.502235558997058 -13.678626118421228 0.3838346090731087 -11.71870173593553 3.974331546352116 -11.354148502689402 66.3162689001437 -11.2229759042887 46.261756562557196 24.39706691127773 -2.854948198348074 97.65366179972258 10.451358302039683 -0.37239076715978936 -0.33181473421741814 4.520139677372033 -0.13690653962477556 -1.5910581471841807 -0.02068554633276521 -0.034007313666072146 -56.19919868854453 -0.04383558067004481 0.006299157484268775 -56.24922968929018 -38.75323457173122 0.03254759861995165 0.02646612336559575 0.02323234913666653 0.015053371479738545 -0.026923822988895108 0.0272075843864681 0.02338646526532577 -0.011657821237677961 -36.73329161483097 0.01408865739920656 -0.002568479878192472 -0.01361536301570757 -0.022300347408182434 0.007639740057537036 -0.004531428282046979 -0.04508137320090539 -0.040682252475855316 -19.71817402602323 -0.02585043969439718 0.01747228298867952 0.02702279052528616 -0.015692909743426464 -0.01258681615024813 -0.00792847965541209 0.0452890480580079 -0.005497058087162292 24.006630463024848 0.044903488553660886 0.011319176838663458 28.872729378416025 0.009057980230187113 -0.005777056606392935 28.877671167359342 -0.016777316804716377 0.02186869219150591 14.76962968040035 3.36080255555958 9.784952562571117 -62.84636790859267 5.2976288963633165 -51.204241611321855 -53.52002876045547 0.8164775155538113 -94.4329042864087 -5.869853638883242 0.4627600256431902 -0.940511493386704 -0.5214883406183238 0.09613386294854245 -8.123730088994895 0.02701110943656883 0.024132623804512296 44.594093991642126 -0.02881853758324951 0.005577683043883891 44.599742636726376 12.481312053895937 0.025418255105005852 -0.027388040579735613 -0.02596255716238286 0.020045621726760065 -0.041735045899029995 -0.017480573623316238 -0.012267962901914715 -0.013248551889965841 11.128790929601834 0.0027958971999654378 -0.040054412653001754 -0.02854081642361211 -0.008867462497200083 -0.01842785047747207 -0.015995326961793045 -0.0036934031084737214 0.015729239476059174 4.756062386910001 -0.032938626393761765 0.006886650535263492 0.028898523144965847 -0.01638181796037894 0.003993752844630202 0.03374165558081176 0.013356192454059425 -0.01788570416390515 -5.608915130159464 -0.006733810171905484 0.004691069031266315 -6.760690891742311 -0.0064644084395331265 0.01136236563295883 -6.727235233751683 0.03365484550697097 0.03389792794468011 0.04704696554645794 -0.02160817717242243 -0.029384353797287346 8.033393592681056 3.508538709640839 -19.198618559312905 0.005354834748476974 10.376259840784028 0.002296808293105298 -5.6666243424948695 -15.6448358419349 3.227588194858563 -0.04245050081374035 0.022463966249234763 0.009942600119277377 -0.008940260550138726 4.7085630599723185 0.0023841143671966968 12.43499148455913 -8.244312943083326 6.8362263354527135 0.02257477411548648 46.38998980122665 0.01840208719680921 -4.351285720417172 -14.763612140106744 -3.8541482908100066 -0.04474086867016754 -0.03169921216039103 0.01647812629071667 -0.0026093775716911917 -10.704912232746496 -0.0037752088666998377 
0.0014570596000247722 0.02458405585636024 0.023285876224008458 -0.008247291645852833 0.02889809247923604 -0.03610983457060786 -3.3566367023121697 1.4394277901498271 -0.7261636810503299 -1.068210968936638 3.5082859399652517 0.4028716307176228 -1.2763215514644792 -2.378191494686195 -2.1427529998536703 -1.2758822457537484 -0.03587662311348118 -0.8765874173859256 -0.9179313380078334 15.709135529718413 2.3629275160376046 0.21559782886887147 1.2723087952453795 5.121807371672413 -0.5965626379099606 -13.432857399940623 0.42506748843560876 -11.678823322894019 3.9835050260237788 -11.400736298764215 65.69360256201239 -10.712071489328013 45.10795878931857 20.97855731456096 -3.2592817088615305 97.85690288110614 10.136087065857414 -0.3657434799881889 -0.49890059605115283 4.527806919804823 -0.08737605072389809 -1.6325627210656544 0.014250097304732439 0.042648635454691136 -56.26763403763004 0.02885905193194136 -0.04820010440353581 -56.273379993960226 -38.736424978599096 0.019373561857927483 0.017637641177493744 0.01774602983303323 0.003861678504672309 0.03770406774763109 0.004104140632004961 0.025625272090782986 0.025058138112472025 -36.67822143023966 0.019463078831655586 0.036442824450093676 0.03455095771053154 0.015340996404670161 0.01376632235283619 -0.04958270360131335 -0.03596244721734195 -0.014281426939965562 -19.72812076141402 -0.001685672107191419 -0.01955978327805116 -0.02582008849927614 -0.010470043992547062 -0.0052375020175538835 -0.02193968460667349 -0.015315021692420999 -0.010163825699018351 24.038411116988065 -0.017483229276066714 -0.04851987735848692 28.827645274190388 -0.007566741820315717 -0.024686479839549937 28.87269875321682 0.01551271554940092 -0.03417951106423934 14.775305934705772 3.3317810883175185 9.825126838764412 -62.64308745933838 5.782902096361332 -50.71239802331479 -54.16601499344362 1.36307714862013 -93.50862790573002 -6.077576404545979 0.08330103876146314 -0.4976259593125902 -0.48622472167466846 0.07329675124120201 -8.168945729281324 0.04962812151536777 0.014395041927395191 44.57123425621538 -0.0019302264071187239 -0.01232111904254583 44.541858036677425 12.431701364459977 -0.028412922473660233 -0.017171323405025057 -0.0056585546973043545 0.041984826344956976 0.016410674635266097 0.042751178126743464 0.026051087854180564 0.00011845411362405559 11.143565255265283 0.02564400039562722 0.02512765009110948 0.015473652914177549 -0.04020917342364582 0.03454483642563933 0.007940892987885065 -0.010401779919687404 -0.03840836696300684 4.7576974509979415 -0.02618443686148782 -0.020526753188928142 0.00791518846742384 -0.018952993421506605 -0.04430749389780202 0.01350567963078358 -0.007683265866217373 -0.013997366471720573 -5.632359394023373 -0.005779704194599389 -0.04412647426277747 -6.697892080005003 0.022093690983288373 0.032511909770606286 -6.73562813786491 -0.007416370676742524 -0.004612897820016537 -0.006775550977755337 -0.027007041191724618 -0.023475926614217064 8.021964901230609 3.492318481337477 -19.25201071788954 0.047845314962136794 10.40158853947845 -0.010035353631256148 -5.611536655207535 -15.638630547492156 3.1658010486981927 0.018294259252157823 -0.027811259052478787 0.041290393918455216 0.0391238912998262 4.7028131526564945 -0.04893831926942918 12.468357699496213 -8.196373828443337 6.921179498505676 -0.04946080762414402 46.35149625254959 0.02177401190802036 -4.311754715971011 -14.757554523486462 -3.8211237373679334 -0.01576149400797615 0.012381548236595026 0.04234213818610643 0.048208600435490995 -10.731495698002218 -0.007887776565158388 
0.005255628067370849 0.025748970604576257 -0.01612686047702755 -0.0006362502540645133 0.014760108480807062 0.011438240480953913 -3.428930193908825 1.332793052389498 -0.7236911588821122 -1.081409610376298 3.517596427076733 0.35273445613549165 -1.2360195608691051 -2.4419760504577117 -2.1761214036439944 -1.3274876439892938 -0.02438716881152096 -0.9153347954764182 -0.9667758403992619 15.655430286657223 2.6358092369859625 0.2913812657293801 1.44679491034107 5.79848468802317 -0.6170381086850201 -13.152982943983611 0.4556817252720036 -11.462829443750556 3.9157440859489134 -11.530957302769185 65.05661126007838 -9.66733197165664 43.26202710871572 17.453483653928156 -3.5817134165078084 98.1592868722012 9.907700506894093 -0.40031507698680757 -0.7362268643365579 4.511704812813037 -0.16168850620557684 -1.5715549657683991 0.006150076588034112 0.0035200407684368054 -56.23475518380048 0.044780244090980345 0.024269087927872454 -56.218241223792155 -38.75451765817701 -0.020568394558302942 0.009919385912147468 -0.01809686793082572 0.028272755399601578 -0.003952379112194881 -0.032374402418488234 -0.0117946896111757 -0.009119553404575839 -36.736688746908136 -0.003933430558083757 -0.0285701949423273 0.027097140205815596 -0.010097659317117046 -0.02620566676503386 -0.005923735779632747 0.017199084452192506 -0.027405391195939852 -19.72239679522555 0.04158935207736972 -0.01975663059046989 -0.048784860486815476 0.018117888092188898 0.031160060381867083 -0.019244138403675705 0.03954497752754227 -0.001805575312378188 24.013130473419285 -0.01346523852170579 0.010128603762783177 28.906935035625448 -0.00879636777507709 -0.03011884579049543 28.90703925751814 -0.012129924854976978 -0.013442167663724868 14.643310858319527 3.3004332174498408 9.874369665956442 -62.59123499748444 6.401768624631577 -49.71969049026083 -56.22433413226555 2.3616113206054394 -92.39208450744765 -6.01212003497427 -0.39878611478211046 0.07089211051666561 -0.5130877983566666 0.0343744170899319 -8.147989311691596 0.01692805319803862 0.042246537526792347 44.583858095391456 -0.013359832313355172 0.015191587695874413 44.56254498529743 12.459159264535678 -0.03505873118888013 0.03513523531070934 0.0036847138971080598 -0.005333156738556235 0.021007249486321548 -0.022709882119757545 -0.03207359828312641 -0.01915190940288589 11.112469020522603 0.026218851016336107 0.019731537597201875 0.017219513786594077 -0.03541281192914165 -0.0013695440611351266 0.04661476498456424 0.013921763945185366 -0.03267597605961421 4.7364371442463105 0.018325718607463296 -0.004493358198465024 -0.031629983888428734 -0.006021627982498134 0.011802435397782612 0.03547475080126045 -0.008290098554290956 0.012227171098970169 -5.621267992137895 -0.015577992924492553 0.01365348745170247 -6.7308427555855594 0.006733648497856927 0.03235938629179589 -6.727790858953047 -0.04697940446544628 0.01725981493959058 0.025113046903664227 -0.012171545588871473 -0.008632309078137834 8.00439110032054 3.4999718725825972 -19.24136075332897 -0.006934267892221422 10.396396431826762 -0.023018672183842483 -5.627295148576246 -15.675213763295321 3.1659503418143586 -0.01734349645927975 -0.019261435217690616 -0.009644904283366005 0.0329518172301595 4.664669320788729 0.03417349874227346 12.49170176279763 -8.279972694510482 6.862698695096936 0.0070627153379409485 46.38331690491461 0.0016606728053300108 -4.3003127830390815 -14.767805337016522 -3.7853711196467916 0.0496034337316661 -0.03302893852071235 0.03529881244174933 0.0431298088213971 -10.785445566672358 -0.029159769875300962 
-0.04510221236755971 -0.009325609368683927 0.025008582699353132 -0.008704281836185239 -0.01699504286247022 -0.006334977298570932 -3.540457530530102 1.1474784379521124 -0.7337091067759333 -1.1020381275052624 3.5525325052153693 0.37069613432852255 -1.2676142362259788 -2.3835677166360836 -2.2584791990155164 -1.3150611111289705 0.02046581303381769 -0.9209994244794085 -0.9756543716734714 15.751211533031647 2.7554616723783334 0.2619048896373273 1.5309004954560588 6.405802151670531 -0.704269724197617 -12.942174323676447 0.4943347424980511 -11.369356396588588 3.9037973043776475 -11.684049751001075 64.07953441645822 -9.122298402660318 41.44144353986474 14.372058009959122 -3.963320880669289 98.61070264990322 9.666998158354493 -0.4189619057777759 -0.75420025663536 4.500318963286722 -0.1375200417865616 -1.5929697753242242 0.022255369157042612 -0.0313057903171983 -56.2508489532594 0.007960068102297041 -0.020322180741025556 -56.20970083534077 -38.73856447795605 0.03795372920514535 0.00294647890573413 0.02866118106992933 -0.014528008659286953 0.03260751365713223 0.029768064453544116 -0.012237160003011763 -0.03361848554512976 -36.650824033549505 -0.04965915484026354 0.04665766641326325 0.040878317645009876 -0.011457563650030887 -0.031230791018218254 0.04937479720069938 0.04704772799879538 -0.04549092867565876 -19.773316887640792 0.03351674868677225 0.012409633698168337 0.048299447644153205 0.019368993040727044 -0.04389183779811634 0.027179045505828742 0.01206883791345732 -0.03568116946869487 24.09310529406043 -0.0006877399971388384 0.03063995944754175 28.882686002131276 -0.014546070504745073 -0.034834095866765405 28.8338374015624 -0.00174399181885167 0.02108222178874612 14.481650035512915 3.3080574602237887 10.00958366294719 -62.4652149909096 7.077947853223124 -48.41776178318068 -58.53610034994746 3.678227256557285 -91.7588261909572 -5.556802930683692 -0.5740463715437112 0.41954406659191945 -0.5010087638865846 0.08665510631622111 -8.107259820180541 -0.003926008916192955 0.02689964347824309 44.60684960191947 0.025269386902947753 -0.033891409510585044 44.60277950310106 12.44611300509902 -0.02449582554347532 -0.012101974216994774 0.049318868061772436 0.011898102043928637 -0.021155754139742643 0.038973641489385355 -0.02239808145333989 0.011988573321466607 11.121477787868935 -0.04743945532272846 -0.028785067718711147 -0.012766018690012886 -0.02219416853649751 -0.04137692970827241 -0.009837012773714836 0.034941001536173646 -0.00789683351390915 4.794777031861855 -0.04078629793362699 -0.04995749068344023 -0.04329627122689749 -0.0473721493951859 -0.003585523088009407 -0.030019407022734746 -0.03241210256377236 -0.01376827616399945 -5.639965834719681 0.007933322463546921 0.02348795389451612 -6.702422864634975 0.013240243259933792 -0.0052310793893306845 -6.70709568697982 0.018233070459609743 0.0334556383776574 -0.011106529817970225 -0.011503361203092198 -0.007104174285227508 8.062353956804959 3.4487998433940645 -19.186621123945926 0.02885272050857992 10.417734166422013 0.02541022830415991 -5.591479278845265 -15.658285323886364 3.211277705604207 -0.011132746808185759 0.010515661187501938 -0.009971632950737675 0.01393359755203235 4.699142761758781 0.04568246518870509 12.469501947903023 -8.236928797192974 6.851703140967421 0.028477885639425788 46.39534823452092 0.02323553446554309 -4.357308342478895 -14.738032031450196 -3.8700547891964057 -0.013139487157129063 0.014835541633933134 0.004971167875650707 0.024022367295363247 -10.732208421144675 -0.035696136948138966 
